<svg id="Layer_1" data-name="Layer 1" xmlns="http://www.w3.org/2000/svg" xmlns:xlink="http://www.w3.org/1999/xlink" viewBox="0 0 512 512"><defs><style>.cls-1{fill:url(#linear-gradient);}.cls-2{fill:url(#linear-gradient-2);}</style><linearGradient id="linear-gradient" y1="256" x2="512" y2="256" gradientUnits="userSpaceOnUse"><stop offset="0.16" stop-color="#f96992"/><stop offset="1" stop-color="#f96992"/></linearGradient><linearGradient id="linear-gradient-2" x1="358.36" y1="133.74" x2="435.18" y2="133.74" xlink:href="#linear-gradient"/></defs><title>heart-outline</title><path class="cls-1" d="M256,493.49,46,288.18C-15.3,226.42-15.3,126.32,45.8,64.83A156,156,0,0,1,256,54.17a155,155,0,0,1,99.27-35.66h.05A155.11,155.11,0,0,1,466.13,64.85a158.59,158.59,0,0,1,0,223.12l-.2.2ZM156.72,57A116.88,116.88,0,0,0,73.07,91.88c-46.3,46.59-46.29,122.41,0,169L256,439.77,439,260.82a120.18,120.18,0,0,0-.08-168.91,117,117,0,0,0-83.61-35h0a117.14,117.14,0,0,0-83.69,35L256,107.59,240.39,91.91A117.11,117.11,0,0,0,156.72,57Z"/><path class="cls-2" d="M435.18,172.15H396.77a38.45,38.45,0,0,0-38.41-38.41V95.33A76.91,76.91,0,0,1,435.18,172.15Z"/></svg>